<svg xmlns="http://www.w3.org/2000/svg" viewBox="0 0 24 24" fill="currentColor">
  <path d="M12 6c1.11 0 2-.9 2-2 0-.38-.1-.73-.29-1.03L12 0l-1.71 2.97c-.19.3-.29.65-.29 1.03 0 1.1.9 2 2 2zm4.6 9.99l-1.07-1.07-1.08 1.07c-1.3 1.3-3.58 1.31-4.89 0l-1.07-1.07-1.09 1.07C6.75 17.64 5.88 18 4.96 18c-.73 0-1.4-.23-1.96-.61V21c0 .55.45 1 1 1h16c.55 0 1-.45 1-1v-3.61c-.56.38-1.23.61-1.96.61-.92 0-1.79-.36-2.44-1.01zM18 9H6c-1.66 0-3 1.34-3 3v.55c0 1.07.6 2.05 1.56 2.55.35.18.73.28 1.12.28.64 0 1.24-.25 1.69-.69l2.14-2.13 2.13 2.13c.45.44 1.05.69 1.69.69.64 0 1.24-.25 1.69-.69l2.13-2.13 2.14 2.13c.45.44 1.05.69 1.69.69.39 0 .77-.1 1.12-.28C20.4 14.6 21 13.62 21 12.55V12c0-1.66-1.34-3-3-3z"/>
</svg>
